<?xml version="1.0" encoding="UTF-8"?>
<svg version="1.1" xmlns="http://www.w3.org/2000/svg" width="915" height="552">
<path d="M0 0 C301.95 0 603.9 0 915 0 C915 182.16 915 364.32 915 552 C613.05 552 311.1 552 0 552 C0 369.84 0 187.68 0 0 Z " fill="#FCD81F" transform="translate(0,0)"/>
<path d="M0 0 C2.69921875 0.16015625 2.69921875 0.16015625 5.6875 1.0625 C6.73808594 1.36929688 7.78867187 1.67609375 8.87109375 1.9921875 C9.90363281 2.32476562 10.93617188 2.65734375 12 3 C12.91910156 3.29132813 13.83820313 3.58265625 14.78515625 3.8828125 C16.86561954 4.56201288 18.93434261 5.27701991 21 6 C21.66 4.68 22.32 3.36 23 2 C35.72284873 1.20482195 45.48977413 2.45996402 57 8 C57.65661621 8.31565918 58.31323242 8.63131836 58.98974609 8.95654297 C66.97379449 12.87513037 75.28990575 17.11002838 82 23 C82.33 23.99 82.66 24.98 83 26 C85.03026699 27.71367314 87.05081134 29.30605331 89.1875 30.875 C101.29962004 39.90729932 101.29962004 39.90729932 105.3125 44.6875 C107.17651005 46.8852411 109.04349411 49.04601308 111.0234375 51.140625 C116.52789627 56.98290254 121.14493909 63.23316666 125.6628418 69.84741211 C127.98398522 73.22915584 130.3111252 76.40134552 133.0859375 79.42578125 C136.53303209 83.35916938 138.4263253 87.71188374 140.4375 92.5 C141.21221032 94.29224274 141.9882629 96.08390584 142.765625 97.875 C143.14267578 98.75027344 143.51972656 99.62554687 143.90820312 100.52734375 C144.86456236 102.69326645 145.86677027 104.81844271 146.921875 106.9375 C153.43943203 120.08796906 158.02584957 133.87661274 159.30932617 148.54394531 C159.63954376 152.23595549 160.11907147 155.75116243 161 159.35546875 C165.23654437 176.9692117 164.42548832 194.78432146 164.04425049 212.77325439 C164.00376064 214.81075956 163.97561345 216.84850035 163.94873047 218.88623047 C163.58987346 245.84583579 158.2197033 271.32750805 145 295 C144.64534668 295.63921387 144.29069336 296.27842773 143.92529297 296.93701172 C138.70279185 306.24260188 132.77072287 314.75924697 126 323 C125.25878906 323.9075 124.51757812 324.815 123.75390625 325.75 C117.34598702 333.24303925 109.8685691 338.51306272 101.625 343.8125 C98.47139338 345.87617591 95.6365011 348.13723713 92.80883789 350.62817383 C72.21636161 368.75019798 48.32750219 381.0091308 23 391 C22.26910156 391.29672607 21.53820312 391.59345215 20.78515625 391.89916992 C16.24362635 393.69464562 11.8165003 394.78674508 7 395.5625 C6.25854736 395.68471924 5.51709473 395.80693848 4.75317383 395.93286133 C3.22767745 396.1798928 1.70138104 396.42203553 0.17431641 396.65917969 C-1.77869153 396.96531028 -3.72758582 397.29741647 -5.67578125 397.6328125 C-19.04610914 399.67211063 -32.51493712 399.23231185 -46 399 C-47.13373047 398.98598145 -48.26746094 398.97196289 -49.43554688 398.95751953 C-62.75262454 398.76811241 -75.24973481 398.00418968 -88 394 C-88.68433105 393.78714355 -89.36866211 393.57428711 -90.07373047 393.35498047 C-100.55612704 390.01934166 -110.60198095 385.73975158 -120.57421875 381.11816406 C-123.14565819 379.93285885 -125.72875057 378.77538777 -128.3125 377.6171875 C-148.31791276 368.52659566 -163.59995675 355.70001883 -179.76171875 341.01953125 C-181.87977448 339.10847573 -184.02714567 337.23794417 -186.1875 335.375 C-222.02550514 303.89181222 -241.9661907 259.55255096 -245.24707031 212.453125 C-245.64473848 202.61155316 -245.57225401 192.86505719 -243.50390625 183.203125 C-242.62433419 177.61204678 -242.57299607 171.94648055 -242.42993164 166.29418945 C-242.27834027 161.66099044 -241.81934901 158.29568517 -240 154 C-239.85269036 151.58638816 -239.77889957 149.16793032 -239.75 146.75 C-239.36983083 135.06903826 -237.2593625 120.51872501 -232 110 C-231.34 110 -230.68 110 -230 110 C-230.03480469 109.14792969 -230.06960938 108.29585938 -230.10546875 107.41796875 C-229.76595742 96.41528671 -224.13010606 85.58049027 -219.5352478 75.80453491 C-218.70554582 74.03841273 -217.88935726 72.26596217 -217.07348633 70.4934082 C-212.55257799 61.11794264 -207.17299205 54.5426613 -198.25 49.0625 C-197.34765625 48.49660156 -196.4453125 47.93070313 -195.515625 47.34765625 C-193.28834504 46.15447056 -191.46805182 45.45555162 -189 45 C-187.56687074 47.86625852 -187.73303888 49.80020356 -188 53 C-189.06288963 55.62409249 -190.15928538 58.02107428 -191.46484375 60.515625 C-191.8176088 61.21266541 -192.17037384 61.90970581 -192.53382874 62.62786865 C-193.65718693 64.84116682 -194.796972 67.0455089 -195.9375 69.25 C-196.70097525 70.7468325 -197.46335693 72.24422331 -198.22460938 73.7421875 C-199.61558383 76.47519426 -201.01240503 79.20500564 -202.41772461 81.93066406 C-203.28666269 83.61625109 -204.15191309 85.30382619 -205 87 C-204.40574219 86.40050537 -203.81148438 85.80101074 -203.19921875 85.18334961 C-200.95733893 82.92425473 -198.71308469 80.66755127 -196.46728516 78.41235352 C-195.50248541 77.44257727 -194.53859105 76.4718993 -193.57568359 75.50024414 C-188.45222767 70.33147149 -183.30143412 65.28043068 -177.77392578 60.54467773 C-175.04354415 58.16714889 -172.48453272 55.63357348 -169.9375 53.0625 C-169.42147217 52.54453857 -168.90544434 52.02657715 -168.3737793 51.49291992 C-165.00525137 48.08627569 -161.81670885 44.56801736 -158.69921875 40.9296875 C-147.39983095 28.09773906 -134.58415697 17.75516837 -117.75 13.75 C-116.23176636 13.37016968 -116.23176636 13.37016968 -114.68286133 12.98266602 C-108.27910428 11.42178543 -101.99313347 10.32428703 -95.44921875 9.55859375 C-90.48142422 8.75406983 -85.7178419 7.34627984 -80.91674805 5.85131836 C-68.18697813 2.02455959 -55.42703325 1.67677102 -42.25073242 1.73925781 C-39.569919 1.74997035 -36.88977749 1.73930601 -34.20898438 1.7265625 C-24.90122701 1.72356072 -16.09339659 2.15093625 -6.94897461 3.96191406 C-3.87334744 4.33084825 -3.87334744 4.33084825 -1.76464844 2.03588867 C-1.18231445 1.36404541 -0.59998047 0.69220215 0 0 Z " fill="#69AEF8" transform="translate(524,74)"/>
<path d="M0 0 C0.78358887 0.00128906 1.56717773 0.00257813 2.37451172 0.00390625 C8.3185244 0.10229669 13.61104622 0.98500192 19.125 3.3125 C19.125 3.6425 19.125 3.9725 19.125 4.3125 C18.155625 4.43625 17.18625 4.56 16.1875 4.6875 C2.25914501 6.730115 -10.12136392 12.10209643 -20.875 21.3125 C-21.83212891 22.03953125 -21.83212891 22.03953125 -22.80859375 22.78125 C-34.11892883 31.77660421 -43.2017645 47.12378851 -45.875 61.3125 C-46.95319903 71.85781248 -45.27646784 80.78332365 -38.875 89.3125 C-38.875 89.9725 -38.875 90.6325 -38.875 91.3125 C-38.29878906 91.59996094 -37.72257812 91.88742188 -37.12890625 92.18359375 C-35.69710175 92.90073673 -34.26717964 93.62166007 -32.83984375 94.34765625 C-31.83630859 94.85619141 -31.83630859 94.85619141 -30.8125 95.375 C-29.80509766 95.88740234 -29.80509766 95.88740234 -28.77734375 96.41015625 C-19.43129194 100.84329376 -8.47585022 98.36018914 0.96875 95.48046875 C4.20449744 94.35670194 4.20449744 94.35670194 7.40625 92.61328125 C8.75203125 91.96939453 8.75203125 91.96939453 10.125 91.3125 C10.785 91.6425 11.445 91.9725 12.125 92.3125 C-5.29497308 107.67051709 -24.19359403 116.90017404 -47.75634766 115.53271484 C-52.26658869 115.06391588 -55.99116573 113.57675966 -59.875 111.3125 C-61.4528125 110.44625 -61.4528125 110.44625 -63.0625 109.5625 C-70.35737705 103.72659836 -75.82464573 96.52423658 -77.875 87.3125 C-79.45959547 65.49035671 -72.68045465 48.07621431 -58.6796875 31.3515625 C-56.50454457 28.89393348 -54.25613303 26.57152364 -51.875 24.3125 C-51.42382812 23.80589844 -50.97265625 23.29929688 -50.5078125 22.77734375 C-38.13478914 9.26550978 -18.31135925 -0.12566234 0 0 Z " fill="#E7F76B" transform="translate(500.875,155.6875)"/>
<path d="M0 0 C4.58646389 3.87955937 8.81393662 8.99420634 10 15 C11.23690189 31.69817556 6.22540319 45.8340383 -4.62109375 58.67578125 C-11.60130374 65.49552665 -20.3831843 72.23238559 -30.4375 72.375 C-35.40575893 72.27469868 -38.2546151 71.46448103 -42 68 C-45.13794179 64.33906791 -45.52222256 61.00581745 -45.3515625 56.3359375 C-44.17159576 48.49571404 -38.57397277 42.28060578 -33 37 C-37.50305433 33.93409067 -40.96438246 32.21549418 -46.4765625 32.48828125 C-55.60334125 34.33906765 -65.07124946 40.28545376 -70.375 48 C-71.3202163 49.62787252 -72.17199667 51.30949319 -73 53 C-73.33 53 -73.66 53 -74 53 C-75.11329143 41.0321171 -69.24912027 29.46644872 -61.89453125 20.40625 C-46.9479631 3.32445783 -22.94442957 -13.27578826 0 0 Z " fill="#E7F86A" transform="translate(534,170)"/>
<path d="M0 0 C6.0962067 5.02981486 7.85560562 9.61822656 8.6171875 17.2734375 C8.9884375 18.3046875 9.3596875 19.3359375 9.7421875 20.3984375 C12.47286324 29.37065778 9.69296853 40.94408119 6.37109375 49.47265625 C5.34775402 52.18413243 5.34775402 52.18413243 6.41796875 54.37890625 C6.91683594 55.06597656 7.41570312 55.75304687 7.9296875 56.4609375 C11.2666173 61.52065431 13.94301725 66.7532492 16.5546875 72.2109375 C16.96823486 73.05229248 17.38178223 73.89364746 17.80786133 74.76049805 C18.37670044 75.95606323 18.37670044 75.95606323 18.95703125 77.17578125 C19.30113037 77.89241943 19.64522949 78.60905762 19.99975586 79.34741211 C20.6171875 81.2734375 20.6171875 81.2734375 19.6171875 84.2734375 C15.52238844 87.37220436 15.52238844 87.37220436 12.56982422 87.05004883 C9.15615856 85.6923506 8.1946806 82.12942269 6.7421875 78.9609375 C6.04714798 77.50377601 5.35183261 76.04674607 4.65625 74.58984375 C4.3149707 73.86297363 3.97369141 73.13610352 3.62207031 72.38720703 C2.1821052 69.35824251 0.64742893 66.3827709 -0.8828125 63.3984375 C-3.3828125 58.51811835 -3.3828125 58.51811835 -3.3828125 56.2734375 C-4.02347656 56.42941406 -4.66414063 56.58539063 -5.32421875 56.74609375 C-6.18917969 56.94074219 -7.05414063 57.13539063 -7.9453125 57.3359375 C-9.21568359 57.63177734 -9.21568359 57.63177734 -10.51171875 57.93359375 C-13.96689802 58.34257415 -16.96982008 57.87672293 -20.3828125 57.2734375 C-20.37233887 57.97952148 -20.36186523 58.68560547 -20.35107422 59.41308594 C-20.3094646 62.61650016 -20.28347046 65.81985746 -20.2578125 69.0234375 C-20.24105469 70.13460937 -20.22429687 71.24578125 -20.20703125 72.390625 C-20.20058594 73.46054687 -20.19414062 74.53046875 -20.1875 75.6328125 C-20.17702637 76.61733398 -20.16655273 77.60185547 -20.15576172 78.61621094 C-20.39236318 81.38521132 -20.79488401 82.99935089 -22.3828125 85.2734375 C-25.5078125 86.0234375 -25.5078125 86.0234375 -28.3828125 86.2734375 C-31.55275558 81.99872957 -31.79750214 78.32364367 -31.72338867 73.1784668 C-31.72382675 72.37794388 -31.72426483 71.57742096 -31.72471619 70.75263977 C-31.72263296 68.11739364 -31.69932428 65.48279068 -31.67578125 62.84765625 C-31.67018363 61.0163457 -31.66591431 59.18503064 -31.66291809 57.35371399 C-31.65148239 52.54169233 -31.62202617 47.72994379 -31.58880615 42.91802979 C-31.55807779 38.00463556 -31.54440684 33.09119706 -31.52929688 28.17773438 C-31.49715526 18.54284898 -31.4459743 8.90816598 -31.3828125 -0.7265625 C-21.22019613 -3.13302068 -9.68126335 -4.94124527 0 0 Z " fill="#F3EA6E" transform="translate(456.3828125,303.7265625)"/>
<path d="M0 0 C5.14576634 4.89475334 7.41731266 10.16572023 7.73046875 17.22265625 C7.74236098 18.64840277 7.74871666 20.07420446 7.75 21.5 C7.76224609 22.21994141 7.77449219 22.93988281 7.78710938 23.68164062 C7.79769011 27.4801247 7.72005655 29.20116518 5.5625 32.4375 C5.43446125 37.94316611 7.01256164 43.20645802 8.5625 48.4375 C10.13295731 57.64557703 12.15077812 70.66277069 6.8125 78.9296875 C1.77306721 85.0085033 -2.87805895 86.5095817 -10.4375 87.4375 C-11.489375 87.6025 -12.54125 87.7675 -13.625 87.9375 C-18.05273407 87.15034728 -20.57578841 84.82619344 -23.4375 81.4375 C-29.81083521 71.0173427 -31.27568671 59.77303972 -28.6484375 47.859375 C-27.38969125 43.9582225 -26.27833574 40.52667559 -23.7578125 37.26171875 C-23.32210937 36.65972656 -22.88640625 36.05773437 -22.4375 35.4375 C-23.06283375 32.91386012 -23.06283375 32.91386012 -24.4375 30.4375 C-27.46417475 24.05663718 -27.38187482 17.30568054 -26.4375 10.4375 C-24.65483218 6.7519845 -22.45585791 4.17508043 -19.4375 1.4375 C-18.695 0.756875 -17.9525 0.07625 -17.1875 -0.625 C-11.3842362 -2.60338539 -5.57370767 -2.53350349 0 0 Z " fill="#F4EB6C" transform="translate(625.4375,304.5625)"/>
<path d="M0 0 C0.2266333 0.51908936 0.4532666 1.03817871 0.68676758 1.57299805 C1.72518975 3.94604285 2.76879562 6.31677393 3.8125 8.6875 C4.16892578 9.50412109 4.52535156 10.32074219 4.89257812 11.16210938 C6.33936648 14.44061142 7.7396184 17.58077317 9.6328125 20.62890625 C12.01884356 24.76696582 12.84808782 29.41990625 14.03515625 34.015625 C14.51275391 35.49289062 14.51275391 35.49289062 15 37 C15.66 37.33 16.32 37.66 17 38 C19.66466849 28.61573271 22.25296605 19.25160126 24.375 9.7265625 C25.12824298 6.44054001 26.02464288 3.22618126 27 0 C30.63 0 34.26 0 38 0 C39.65424348 5.04853314 40.2821652 9.5372011 40.22705078 14.86303711 C40.22734283 15.61508423 40.22763489 16.36713135 40.22793579 17.14196777 C40.22655318 19.60388112 40.21104295 22.06548391 40.1953125 24.52734375 C40.19157856 26.24369644 40.18873339 27.96005127 40.18673706 29.67640686 C40.17913059 34.17597421 40.15950798 38.67541078 40.1373291 43.17492676 C40.1168061 47.77350089 40.10772158 52.37209632 40.09765625 56.97070312 C40.07625909 65.98052595 40.04215948 74.99025207 40 84 C36.7 84 33.4 84 30 84 C29.67 67.5 29.34 51 29 34 C27.35 38.95 25.7 43.9 24 49 C20 55 20 55 17.640625 55.5859375 C16.85171875 55.51632812 16.0628125 55.44671875 15.25 55.375 C14.45078125 55.32085937 13.6515625 55.26671875 12.828125 55.2109375 C11.92320312 55.10652344 11.92320312 55.10652344 11 55 C10.76216797 54.19949219 10.76216797 54.19949219 10.51953125 53.3828125 C8.88891807 48.17566104 6.8401862 43.51696962 4.18359375 38.75 C3 36 3 36 1 27 C1 46.14 1 65.28 1 85 C-1.64 85 -4.28 85 -7 85 C-10.18611699 81.81388301 -9.14472977 73.68898663 -9.17700195 69.45996094 C-9.18357315 68.74199341 -9.19014435 68.02402588 -9.19691467 67.28430176 C-9.21645436 64.93432484 -9.22825842 62.5844108 -9.23828125 60.234375 C-9.24235678 59.42812935 -9.2464323 58.6218837 -9.25063133 57.79120636 C-9.27139625 53.53430953 -9.28574642 49.27744414 -9.29516602 45.02050781 C-9.3062902 40.62308515 -9.34078521 36.22616019 -9.38033772 31.82891464 C-9.40642253 28.4437768 -9.41484989 25.05876009 -9.41844749 21.67353058 C-9.42332423 20.05156288 -9.43496911 18.42960097 -9.45348549 16.80773163 C-9.47773461 14.54556288 -9.47694052 12.28471878 -9.4699707 10.02246094 C-9.47583694 8.73563416 -9.48170319 7.44880737 -9.48774719 6.12298584 C-9 3 -9 3 -7.14250183 1.07281494 C-4.59232344 -0.20413588 -2.81626657 -0.23468888 0 0 Z " fill="#F3EA6E" transform="translate(548,304)"/>
<path d="M0 0 C0.721875 0.00257813 1.44375 0.00515625 2.1875 0.0078125 C2.909375 0.00523437 3.63125 0.00265625 4.375 0 C6.1875 0.1328125 6.1875 0.1328125 7.1875 1.1328125 C7.28983079 2.89015499 7.32320839 4.65155658 7.3293457 6.41186523 C7.33638016 7.5407164 7.34341461 8.66956757 7.35066223 9.83262634 C7.35482651 11.06477371 7.35899078 12.29692108 7.36328125 13.56640625 C7.38649579 16.16081526 7.41061377 18.75521631 7.43554688 21.34960938 C7.47181465 25.4507638 7.50162011 29.55177318 7.51342773 33.65307617 C7.52554709 37.6036296 7.56925183 41.55357665 7.61328125 45.50390625 C7.61137283 46.71783554 7.60946442 47.93176483 7.60749817 49.18247986 C7.73362376 58.03310706 9.06882286 66.32593559 15.1875 73.1328125 C18.31336875 73.46679037 18.31336875 73.46679037 21.1875 73.1328125 C23.90735953 64.90269019 24.64020894 57.36505255 24.6640625 48.73046875 C24.67964203 47.49034531 24.69522156 46.25022186 24.71127319 44.97251892 C24.75844722 41.04678909 24.7864542 37.12123432 24.8125 33.1953125 C24.84724049 29.24451348 24.88964797 25.29381428 24.93515015 21.34312439 C24.96229021 18.89360839 24.98367877 16.44402039 24.99868774 13.99440002 C25.01408096 12.33633583 25.01408096 12.33633583 25.02978516 10.64477539 C25.03628082 9.67423721 25.04277649 8.70369904 25.04946899 7.70375061 C25.1875 5.1328125 25.1875 5.1328125 26.1875 1.1328125 C29.4875 1.1328125 32.7875 1.1328125 36.1875 1.1328125 C36.30379942 10.21724749 36.39241922 19.30142278 36.44656086 28.38644218 C36.47255782 32.60587907 36.50777193 36.82480336 36.56469727 41.04394531 C36.61937439 45.12238667 36.64899484 49.20033774 36.66188622 53.27911758 C36.67106261 54.82835728 36.68898103 56.37757279 36.71615028 57.92660141 C36.89131237 68.33556513 36.16585334 76.7715089 28.75 84.7578125 C22.91957894 87.00815045 17.33171833 87.17789073 11.1875 86.1328125 C5.00680675 82.82443528 0.41639162 76.696367 -1.85058594 70.12255859 C-4.14929617 59.09165107 -4.20338301 48.22688942 -4.09375 36.98779297 C-4.06235715 33.74304729 -4.05274013 30.4987895 -4.046875 27.25390625 C-4.03771084 25.16405663 -4.02733694 23.07421189 -4.015625 20.984375 C-4.00925018 19.54972397 -4.00925018 19.54972397 -4.00274658 18.08609009 C-3.81514173 0.2795578 -3.81514173 0.2795578 0 0 Z " fill="#F4EB6D" transform="translate(378.8125,302.8671875)"/>
<path d="M0 0 C5.114346 3.77634154 6.91914207 9.69374049 8.26953125 15.67578125 C8.35890681 18.67784843 8.15076827 21.62299521 7.89453125 24.61328125 C7.80945313 25.78213867 7.80945313 25.78213867 7.72265625 26.97460938 C7.58268779 28.87584764 7.42767093 30.77596811 7.26953125 32.67578125 C4.94344555 33.05641346 2.60897861 33.3884807 0.26953125 33.67578125 C-1.93993013 31.46631987 -1.07018797 24.53185418 -1.15625 21.5078125 C-1.80196759 17.19863594 -3.00124399 15.03138546 -5.73046875 11.67578125 C-8.47888786 9.39906387 -8.47888786 9.39906387 -11.23046875 9.86328125 C-14.11148056 10.79961009 -15.00547204 11.19394838 -16.73046875 13.67578125 C-17.05663471 16.56132158 -17.19474171 19.16903766 -17.16796875 22.05078125 C-17.18794922 22.80617188 -17.20792969 23.5615625 -17.22851562 24.33984375 C-17.22518063 28.15507476 -17.008584 30.21704734 -14.9921875 33.54296875 C-12.77299528 35.63567851 -10.79431587 37.00691078 -8.10546875 38.42578125 C5.87704029 46.62027839 5.87704029 46.62027839 8.33984375 53.79296875 C8.89480352 57.11491102 9.15492862 60.31137542 9.26953125 63.67578125 C9.346875 64.59101563 9.42421875 65.50625 9.50390625 66.44921875 C9.83200814 72.37328064 8.69301619 76.79349173 5.26953125 81.67578125 C3.33203125 83.55078125 3.33203125 83.55078125 1.26953125 84.67578125 C0.56828125 85.06765625 -0.13296875 85.45953125 -0.85546875 85.86328125 C-8.6004732 88.05208685 -14.55432176 86.82517391 -21.6015625 83.16015625 C-24.63770537 81.0432126 -26.2993981 79.05322539 -27.41015625 75.50390625 C-27.8667984 71.47209015 -27.87477456 67.48000223 -27.85546875 63.42578125 C-27.85933594 62.59820312 -27.86320312 61.770625 -27.8671875 60.91796875 C-27.8571621 54.8024746 -27.8571621 54.8024746 -26.73046875 53.67578125 C-24.05988024 53.53462964 -21.40614637 53.63331018 -18.73046875 53.67578125 C-17.52424355 57.29445684 -17.62229957 60.60084376 -17.66796875 64.36328125 C-17.67248047 65.06517578 -17.67699219 65.76707031 -17.68164062 66.49023438 C-17.69339948 68.21878663 -17.71133421 69.9472949 -17.73046875 71.67578125 C-14.16096629 73.30003327 -11.39697188 73.92777457 -7.48046875 73.86328125 C-6.17335938 73.85361328 -6.17335938 73.85361328 -4.83984375 73.84375 C-2.74488936 73.90645072 -2.74488936 73.90645072 -1.73046875 72.67578125 C-0.56602948 62.61923978 -0.56602948 62.61923978 -4.04296875 53.55078125 C-7.53246495 50.29391813 -11.8135551 48.66703632 -16.171875 46.8515625 C-21.74230727 44.291715 -24.43111121 40.19423934 -26.73046875 34.67578125 C-28.21765489 29.80862661 -27.88029895 24.71292999 -27.73046875 19.67578125 C-27.71371094 18.72445313 -27.69695312 17.773125 -27.6796875 16.79296875 C-27.29568931 8.73997818 -27.29568931 8.73997818 -24.60546875 5.23828125 C-17.55585939 -1.04506623 -9.20242565 -4.46297897 0 0 Z " fill="#F4EA6D" transform="translate(359.73046875,303.32421875)"/>
<path d="M0 0 C2.11945664 0.00538492 4.23870389 0.00001632 6.3581543 -0.00634766 C7.7181808 -0.00568724 9.07820718 -0.00440684 10.43823242 -0.00244141 C11.65986084 -0.00131348 12.88148926 -0.00018555 14.14013672 0.00097656 C17.03372392 0.11490578 19.61687343 0.4607917 22.42651367 1.13037109 C22.42651367 4.43037109 22.42651367 7.73037109 22.42651367 11.13037109 C13.51651367 11.13037109 4.60651367 11.13037109 -4.57348633 11.13037109 C-4.57348633 21.36037109 -4.57348633 31.59037109 -4.57348633 42.13037109 C-3.58348633 41.63537109 -3.58348633 41.63537109 -2.57348633 41.13037109 C-0.95266299 40.92706224 0.67359835 40.76562815 2.30151367 40.63037109 C5.45076051 40.36715046 8.37995916 39.98057235 11.42651367 39.13037109 C13.15546795 42.10417245 14.39020455 44.34972501 14.55151367 47.81787109 C13.15679505 50.6847927 11.55251712 51.54689602 8.60253906 52.64526367 C6.06604548 53.21073128 3.7690721 53.245193 1.17260742 53.20458984 C0.28114014 53.19387451 -0.61032715 53.18315918 -1.52880859 53.17211914 C-2.20355225 53.15834229 -2.8782959 53.14456543 -3.57348633 53.13037109 C-3.58806885 54.02344971 -3.60265137 54.91652832 -3.61767578 55.83666992 C-3.6787571 59.15254387 -3.75291111 62.46759009 -3.8359375 65.78295898 C-3.86917633 67.21741737 -3.89721168 68.65200622 -3.91992188 70.08666992 C-3.95348904 72.14997916 -4.00580046 74.21209412 -4.06176758 76.27490234 C-4.08795166 77.51602783 -4.11413574 78.75715332 -4.14111328 80.03588867 C-4.57348633 83.13037109 -4.57348633 83.13037109 -5.91015625 85.07446289 C-7.57348633 86.13037109 -7.57348633 86.13037109 -10.69848633 85.88037109 C-13.57348633 85.13037109 -13.57348633 85.13037109 -14.57348633 84.13037109 C-14.66788611 81.86045223 -14.69090859 79.58755142 -14.68701172 77.31567383 C-14.68715775 76.60351715 -14.68730377 75.89136047 -14.68745422 75.15762329 C-14.68675503 72.79303997 -14.67896239 70.42853448 -14.67114258 68.06396484 C-14.66927842 66.42871646 -14.66785451 64.79346752 -14.66685486 63.15821838 C-14.6630295 58.84602324 -14.65319908 54.53386157 -14.64215088 50.22167969 C-14.63193713 45.82471164 -14.62735732 41.4277382 -14.62231445 37.03076172 C-14.61157682 28.39728279 -14.5945002 19.7638311 -14.57348633 11.13037109 C-16.27504883 11.16130859 -16.27504883 11.16130859 -18.01098633 11.19287109 C-21.57348633 11.13037109 -21.57348633 11.13037109 -22.57348633 10.13037109 C-22.70629883 8.31787109 -22.70629883 8.31787109 -22.69848633 6.13037109 C-22.70106445 5.40849609 -22.70364258 4.68662109 -22.70629883 3.94287109 C-22.57348633 2.13037109 -22.57348633 2.13037109 -21.57348633 1.13037109 C-14.43034415 -0.15521343 -7.23475401 -0.02192094 0 0 Z " fill="#F2EA6F" transform="translate(502.573486328125,302.86962890625)"/>
<path d="M0 0 C11 0 11 0 14 0.9375 C17.06952883 4.1029516 17.8777413 7.81427835 19 12 C19.33 12.99 19.66 13.98 20 15 C20.54517618 22.13800442 20.39294509 30.98860146 16 37 C11 39 11 39 0 39 C0 26.13 0 13.26 0 0 Z " fill="#6AAEF7" transform="translate(436,312)"/>
<path d="M0 0 C5.29810209 0.04123037 5.29810209 0.04123037 8.3125 2.625 C10.9831244 7.96624879 10.90191404 12.94526424 10.9375 18.8125 C10.958125 19.65876953 10.97875 20.50503906 11 21.37695312 C11.03018517 26.19526042 10.88292414 29.50017494 7.6875 33.375 C4.49223971 35.50517353 2.44030473 35.92152215 -1.37890625 35.81640625 C-3.3125 35.375 -3.3125 35.375 -5.6875 32.8125 C-10.77425322 22.0520605 -10.19048765 12.44635334 -6.3125 1.375 C-4.58402533 -0.35347467 -2.3551665 0.08110507 0 0 Z " fill="#6BAEF6" transform="translate(614.3125,346.625)"/>
<path d="M0 0 C3 0.625 3 0.625 5.1640625 2.75 C7.37408539 6.21080181 7.47792862 8.17964101 7.375 12.25 C7.36210938 13.37664062 7.34921875 14.50328125 7.3359375 15.6640625 C7 18.625 7 18.625 5 21.625 C-2.0139165 22.29299205 -2.0139165 22.29299205 -4.9375 20.3125 C-7.75514834 15.83741146 -7.57613365 10.72094269 -7 5.625 C-5.0507449 1.8764325 -4.13782056 0.86204595 0 0 Z " fill="#6BAFF6" transform="translate(616,312.375)"/>
</svg>
